<svg width="34" height="34" viewBox="0 0 34 34" fill="none" xmlns="http://www.w3.org/2000/svg">
<path d="M8.5 0C7.33125 0 6.375 0.95625 6.375 2.125V31.875C6.375 33.0438 7.33125 34 8.5 34H29.75C30.9188 34 31.875 33.0438 31.875 31.875V8.5L23.375 0H8.5Z" fill="#F8FAFA"/>
<path d="M25.5 8.5H31.875L23.375 0V6.375C23.375 7.54375 24.3312 8.5 25.5 8.5Z" fill="#CED7D7"/>
<path d="M31.875 14.875L25.5 8.5H31.875V14.875Z" fill="#D4ECED"/>
<path d="M27.625 27.625C27.625 28.2094 27.1469 28.6875 26.5625 28.6875H3.1875C2.60312 28.6875 2.125 28.2094 2.125 27.625V17C2.125 16.4156 2.60312 15.9375 3.1875 15.9375H26.5625C27.1469 15.9375 27.625 16.4156 27.625 17V27.625Z" fill="#199DA5"/>
<path d="M6.14802 25.4998C5.86752 25.4998 5.56152 25.3457 5.56152 24.9728V20.148C5.56152 19.842 5.86752 19.621 6.14802 19.621H8.09346C11.9758 19.621 11.8898 25.4998 8.1689 25.4998H6.14802ZM6.68352 20.6569V24.4628H8.09346C10.3874 24.4628 10.4883 20.6569 8.09346 20.6569H6.68352Z" fill="white"/>
<path d="M15.1409 25.585C13.5695 25.653 11.9375 24.6075 11.9375 22.5261C11.9375 20.4361 13.5684 19.4087 15.1409 19.4087C16.6274 19.4841 18.1818 20.5126 18.1818 22.5261C18.1818 24.5406 16.6274 25.585 15.1409 25.585ZM15.0474 20.5137C14.0954 20.5137 13.0595 21.1852 13.0595 22.5271C13.0595 23.8616 14.0965 24.5416 15.0474 24.5416C16.0249 24.5416 17.0694 23.8616 17.0694 22.5271C17.0694 21.1841 16.0249 20.5137 15.0474 20.5137Z" fill="white"/>
<path d="M19.1816 22.5175C19.1816 20.8781 20.2101 19.4681 22.1641 19.4681C22.9036 19.4681 23.4901 19.6891 24.1095 20.2246C24.339 20.4361 24.3645 20.8101 24.135 21.0481C23.9055 21.251 23.557 21.2266 23.353 21.0226C23.0056 20.6571 22.6486 20.5561 22.1641 20.5561C20.8561 20.5561 20.2282 21.4826 20.2282 22.5186C20.2282 23.5726 20.8476 24.5405 22.1641 24.5405C22.6486 24.5405 23.0991 24.344 23.4901 23.9965C23.7525 23.7925 24.118 23.8935 24.271 24.0985C24.407 24.2855 24.474 24.6 24.1775 24.8965C23.5825 25.45 22.8696 25.5605 22.163 25.5605C20.1081 25.5605 19.1816 24.157 19.1816 22.5175Z" fill="white"/>
<path d="M26.5625 28.6875H6.375V29.75H26.5625C27.1469 29.75 27.625 29.2719 27.625 28.6875V27.625C27.625 28.2094 27.1469 28.6875 26.5625 28.6875Z" fill="#CAD1D8"/>
</svg>
