<svg width="34" height="34" viewBox="0 0 34 34" fill="none" xmlns="http://www.w3.org/2000/svg">
<g clip-path="url(#clip0)">
<path d="M33.0039 34.0002H0.996094C0.445984 34.0002 0 33.5542 0 33.0041V14.2776C0 13.9813 0.131883 13.7003 0.359988 13.511L16.3639 0.229794C16.7328 -0.0762725 17.2673 -0.0762725 17.6361 0.229794L33.64 13.511C33.8681 13.7003 34 13.9813 34 14.2776V33.0041C34 33.5542 33.554 34.0002 33.0039 34.0002Z" fill="#60B8BD"/>
<path d="M33.64 13.5108L17.6361 0.229566C17.4517 0.0765 17.2258 0 17 0V34H33.0039C33.554 34 34 33.554 34 33.0039V14.2773C34 13.981 33.8681 13.7001 33.64 13.5108Z" fill="#199DA5"/>
<path d="M28.2891 25.2344H5.71094C5.16083 25.2344 4.71484 24.7884 4.71484 24.2383V4.98047C4.71484 4.43036 5.16083 3.98438 5.71094 3.98438H28.2891C28.8392 3.98438 29.2852 4.43036 29.2852 4.98047V24.2383C29.2852 24.7884 28.8392 25.2344 28.2891 25.2344Z" fill="white"/>
<path d="M28.2891 3.98438H17V25.2344H28.2891C28.8392 25.2344 29.2852 24.7884 29.2852 24.2383V4.98047C29.2852 4.43036 28.8392 3.98438 28.2891 3.98438Z" fill="#F8FAFA"/>
<path d="M23.0839 12.1444C23.0821 12.1375 23.0801 12.1306 23.078 12.1238C22.586 10.4935 21.4851 9.15855 19.9782 8.36493C18.4716 7.57144 16.7475 7.41924 15.1236 7.93608C13.5847 8.42589 12.3045 9.48195 11.5188 10.9096C10.7328 12.3377 10.5261 13.9842 10.9368 15.5458C11.2924 16.8983 12.0605 18.0651 13.1579 18.9201C14.2145 19.7433 15.5306 20.2169 16.8637 20.2537C16.87 20.2539 16.8761 20.254 16.8823 20.254C17.2406 20.254 17.5358 19.9686 17.5458 19.6082C17.5559 19.2416 17.2669 18.9362 16.9003 18.9261C14.7051 18.8654 12.7809 17.3365 12.2211 15.208C11.547 12.6445 12.9988 10.0062 15.5263 9.20158C16.8086 8.79332 18.1699 8.91358 19.3592 9.53999C20.5457 10.1649 21.4134 11.2149 21.8034 12.4972C22.0503 13.4309 21.9692 14.2985 21.5329 15.3956C21.4132 15.6966 21.0421 16.3967 20.1837 16.3967C20.022 16.3967 19.8972 16.2955 19.8371 16.2352C19.694 16.0913 19.6092 15.8794 19.6102 15.6682L19.6185 14.0049C19.6198 13.9594 19.6212 13.914 19.6212 13.868C19.6212 13.8392 19.6201 13.8109 19.6196 13.7824L19.6348 10.7168C19.6366 10.3501 19.3407 10.0513 18.9741 10.0495C18.9729 10.0495 18.9719 10.0495 18.9707 10.0495C18.6055 10.0495 18.3085 10.3446 18.3067 10.7103L18.3055 10.9392C17.8716 10.6267 17.3512 10.451 16.7753 10.451C15.288 10.451 13.7494 11.7356 13.7494 13.8854C13.7494 15.8453 15.0799 17.4398 16.7153 17.4398C17.4083 17.4398 18.037 17.1552 18.5313 16.6749C18.6275 16.8573 18.7499 17.0254 18.8958 17.172C19.2506 17.5285 19.708 17.7248 20.1838 17.7248C21.5495 17.7248 22.4137 16.7751 22.7671 15.8864C23.3115 14.5175 23.4093 13.3633 23.0839 12.1444ZM16.7152 16.1118C15.9276 16.1118 15.0775 15.2606 15.0775 13.8855C15.0775 12.5671 15.9407 11.7792 16.7753 11.7792C17.6446 11.7792 18.2586 12.5921 18.2915 13.7684L18.2904 13.9956C18.2437 15.1736 17.5552 16.1118 16.7152 16.1118Z" fill="#696969"/>
<path d="M17.546 19.6082C17.5551 19.2756 17.3179 18.9942 17 18.9371V20.243C17.3031 20.1886 17.5371 19.9282 17.546 19.6082Z" fill="#555555"/>
<path d="M23.0782 12.1238C22.5862 10.4935 21.4853 9.15853 19.9784 8.36491C19.044 7.87277 18.026 7.6276 17 7.63544V8.96429C17.8127 8.95672 18.6194 9.1503 19.3594 9.54003C20.5459 10.1649 21.4136 11.2149 21.8036 12.4972C22.0505 13.431 21.9694 14.2985 21.5331 15.3956C21.4134 15.6966 21.0423 16.3967 20.1839 16.3967C20.0222 16.3967 19.8974 16.2955 19.8373 16.2352C19.6942 16.0913 19.6094 15.8794 19.6104 15.6682L19.6187 14.0049C19.62 13.9594 19.6214 13.914 19.6214 13.8681C19.6214 13.8392 19.6203 13.811 19.6198 13.7824L19.635 10.7168C19.6368 10.3501 19.341 10.0513 18.9743 10.0495C18.9731 10.0495 18.9721 10.0495 18.9709 10.0495C18.6057 10.0495 18.3087 10.3447 18.3069 10.7103L18.3057 10.9392C17.929 10.6679 17.487 10.4999 17.0001 10.4603V11.7983C17.7489 11.9263 18.2617 12.6963 18.2917 13.7684L18.2906 13.9956C18.2494 15.0373 17.706 15.8909 17.0001 16.0746V17.4231C17.5803 17.3566 18.1058 17.0887 18.5314 16.6751C18.6277 16.8575 18.7501 17.0256 18.896 17.1722C19.2507 17.5287 19.7081 17.725 20.184 17.725C21.5496 17.725 22.4138 16.7753 22.7672 15.8865C23.3117 14.5175 23.4095 13.3634 23.0841 12.1445C23.0823 12.1375 23.0803 12.1307 23.0782 12.1238Z" fill="#555555"/>
<path d="M33.0039 33.9999H0.996094C0.445984 33.9999 0 33.5539 0 33.0038V14.2772C0 13.9154 0.196164 13.5822 0.512391 13.4064C0.828617 13.2308 1.21523 13.2404 1.52243 13.4315L17 23.0649L32.4776 13.4315C32.7846 13.2404 33.1712 13.2308 33.4876 13.4064C33.8038 13.5822 34 13.9154 34 14.2772V33.0038C34 33.5539 33.554 33.9999 33.0039 33.9999Z" fill="#60B8BD"/>
<path d="M33.4876 13.4064C33.1712 13.2308 32.7846 13.2404 32.4776 13.4315L17 23.0649V33.9999H33.0039C33.554 33.9999 34 33.5539 34 33.0038V14.2772C34 13.9154 33.8038 13.5822 33.4876 13.4064Z" fill="#199DA5"/>
</g>
<defs>
<clipPath id="clip0">
<rect width="34" height="34" fill="white"/>
</clipPath>
</defs>
</svg>
