<svg width="34" height="34" viewBox="0 0 34 34" fill="none" xmlns="http://www.w3.org/2000/svg">
<path d="M8.5 0C7.33125 0 6.375 0.95625 6.375 2.125V31.875C6.375 33.0438 7.33125 34 8.5 34H29.75C30.9188 34 31.875 33.0438 31.875 31.875V8.5L23.375 0H8.5Z" fill="#F8FAFA"/>
<path d="M25.5 8.5H31.875L23.375 0V6.375C23.375 7.54375 24.3312 8.5 25.5 8.5Z" fill="#CED7D7"/>
<path d="M31.875 14.875L25.5 8.5H31.875V14.875Z" fill="#D4ECED"/>
<path d="M27.625 27.625C27.625 28.2094 27.1469 28.6875 26.5625 28.6875H3.1875C2.60312 28.6875 2.125 28.2094 2.125 27.625V17C2.125 16.4156 2.60312 15.9375 3.1875 15.9375H26.5625C27.1469 15.9375 27.625 16.4156 27.625 17V27.625Z" fill="#199DA5"/>
<path d="M3.69727 24.9729V20.1481C3.69727 19.8421 3.91827 19.6211 4.2997 19.6211C4.5972 19.6211 4.8182 19.8421 4.8182 20.1481V22H7.58707V20.1481C7.58707 19.8421 7.85907 19.6211 8.16507 19.6211C8.46257 19.6211 8.69207 19.8421 8.69207 20.1481V24.9729C8.69207 25.2704 8.46257 25.4999 8.16507 25.4999C7.85907 25.4999 7.58707 25.2704 7.58707 24.9729V23.1135H4.8182V24.9729C4.8182 25.2704 4.5972 25.4999 4.2997 25.4999C3.91827 25.4999 3.69727 25.2704 3.69727 24.9729Z" fill="white"/>
<path d="M11.4737 20.6837H9.98724C9.24774 20.6837 9.24774 19.5968 9.98724 19.5968H14.0046C14.7611 19.5968 14.7611 20.6837 14.0046 20.6837H12.5946V24.9731C12.5946 25.7115 11.4726 25.7296 11.4726 24.9731V20.6837H11.4737Z" fill="white"/>
<path d="M16.5145 21.7705V24.9133C16.5145 25.2884 16.2085 25.4998 15.9036 25.4998C15.6316 25.4998 15.3936 25.2884 15.3936 24.9133V20.131C15.3936 19.689 15.7686 19.5435 15.9036 19.5435C16.149 19.5435 16.2935 19.689 16.438 19.8505L18.308 22.3729L20.2439 19.756C20.5254 19.4085 21.2129 19.5435 21.2129 20.131V24.9133C21.2129 25.2884 20.9738 25.4998 20.7029 25.4998C20.3979 25.4998 20.1589 25.2884 20.1589 24.9133V21.7705L18.7489 23.5544C18.444 23.9295 18.0615 23.9295 17.781 23.5544L16.5145 21.7705Z" fill="white"/>
<path d="M22.3965 20.131C22.3965 19.8505 22.6345 19.6125 22.932 19.6125C23.204 19.6125 23.4335 19.8516 23.4335 20.131V24.3874H25.7444C26.5764 24.3874 26.5944 25.4999 25.7444 25.4999H22.933C22.6355 25.4999 22.3975 25.2884 22.3975 24.9814V20.131H22.3965Z" fill="white"/>
<path d="M26.5625 28.6875H6.375V29.75H26.5625C27.1469 29.75 27.625 29.2719 27.625 28.6875V27.625C27.625 28.2094 27.1469 28.6875 26.5625 28.6875Z" fill="#CAD1D8"/>
</svg>
