<svg width="34" height="34" viewBox="0 0 34 34" fill="none" xmlns="http://www.w3.org/2000/svg">
<path d="M8.5 0C7.33125 0 6.375 0.95625 6.375 2.125V31.875C6.375 33.0438 7.33125 34 8.5 34H29.75C30.9188 34 31.875 33.0438 31.875 31.875V8.5L23.375 0H8.5Z" fill="#F8FAFA"/>
<path d="M25.5 8.5H31.875L23.375 0V6.375C23.375 7.54375 24.3312 8.5 25.5 8.5Z" fill="#CED7D7"/>
<path d="M31.875 14.875L25.5 8.5H31.875V14.875Z" fill="#D4ECED"/>
<path d="M27.625 27.625C27.625 28.2094 27.1469 28.6875 26.5625 28.6875H3.1875C2.60312 28.6875 2.125 28.2094 2.125 27.625V17C2.125 16.4156 2.60312 15.9375 3.1875 15.9375H26.5625C27.1469 15.9375 27.625 16.4156 27.625 17V27.625Z" fill="#199DA5"/>
<path d="M6.75684 20.1313C6.75684 19.8508 6.97784 19.5448 7.33377 19.5448H9.29621C10.4012 19.5448 11.3957 20.2843 11.3957 21.7017C11.3957 23.0447 10.4012 23.7927 9.29621 23.7927H7.87777V24.9147C7.87777 25.2887 7.63977 25.5001 7.33377 25.5001C7.05327 25.5001 6.75684 25.2887 6.75684 24.9147V20.1313ZM7.87777 20.6147V22.7312H9.29621C9.86571 22.7312 10.3162 22.2287 10.3162 21.7017C10.3162 21.1077 9.86571 20.6147 9.29621 20.6147H7.87777Z" fill="white"/>
<path d="M13.0592 25.5003C12.7787 25.5003 12.4727 25.3473 12.4727 24.9743V20.1485C12.4727 19.8435 12.7787 19.6215 13.0592 19.6215H15.0046C18.887 19.6215 18.802 25.5003 15.0811 25.5003H13.0592ZM13.5947 20.6585V24.4643H15.0046C17.2985 24.4643 17.4005 20.6585 15.0046 20.6585H13.5947Z" fill="white"/>
<path d="M20.1797 20.7261V22.0765H22.3462C22.6522 22.0765 22.9582 22.3825 22.9582 22.6789C22.9582 22.9594 22.6522 23.1889 22.3462 23.1889H20.1797V24.9729C20.1797 25.2704 19.9683 25.4988 19.6708 25.4988C19.2968 25.4988 19.0684 25.2704 19.0684 24.9729V20.147C19.0684 19.8421 19.2979 19.62 19.6708 19.62H22.6532C23.0272 19.62 23.2482 19.8421 23.2482 20.147C23.2482 20.419 23.0272 20.725 22.6532 20.725H20.1797V20.7261Z" fill="white"/>
<path d="M26.5625 28.6875H6.375V29.75H26.5625C27.1469 29.75 27.625 29.2719 27.625 28.6875V27.625C27.625 28.2094 27.1469 28.6875 26.5625 28.6875Z" fill="#CAD1D8"/>
</svg>
