<svg width="35" height="34" viewBox="0 0 35 34" fill="none" xmlns="http://www.w3.org/2000/svg">
<path d="M9.375 0C8.20625 0 7.25 0.95625 7.25 2.125V31.875C7.25 33.0438 8.20625 34 9.375 34H30.625C31.7938 34 32.75 33.0438 32.75 31.875V8.5L24.25 0H9.375Z" fill="#F8FAFA"/>
<path d="M26.374 8.5H32.749L24.249 0V6.375C24.249 7.54375 25.2053 8.5 26.374 8.5Z" fill="#CED7D7"/>
<path d="M32.749 14.875L26.374 8.5H32.749V14.875Z" fill="#D4ECED"/>
<path d="M28.5 27.625C28.5 28.2094 28.0219 28.6875 27.4375 28.6875H4.0625C3.47813 28.6875 3 28.2094 3 27.625V17C3 16.4156 3.47813 15.9375 4.0625 15.9375H27.4375C28.0219 15.9375 28.5 16.4156 28.5 17V27.625Z" fill="#199DA5"/>
<path d="M9.68352 25.5C9.14802 25.5 8.93552 24.9825 9.24152 24.617L12.2665 20.5987H9.75896C9.02052 20.5987 9.08002 19.5553 9.75896 19.5553H13.1834C13.8283 19.5553 14.0153 20.1652 13.5574 20.6592L10.66 24.4215H13.4214C14.1014 24.4215 14.1864 25.501 13.3545 25.501H9.68352V25.5Z" fill="white"/>
<path d="M14.959 20.1312C14.959 19.4342 16.081 19.4087 16.081 20.1312V24.9816C16.081 25.686 14.959 25.7041 14.959 24.9816V20.1312Z" fill="white"/>
<path d="M17.583 20.1313C17.583 19.8508 17.804 19.5448 18.161 19.5448H20.1234C21.2284 19.5448 22.2229 20.2843 22.2229 21.7017C22.2229 23.0447 21.2284 23.7927 20.1234 23.7927H18.705V24.9147C18.705 25.2887 18.467 25.5001 18.161 25.5001C17.8805 25.5001 17.583 25.2887 17.583 24.9147V20.1313ZM18.7039 20.6147V22.7312H20.1224C20.6919 22.7312 21.1424 22.2287 21.1424 21.7017C21.1424 21.1077 20.6919 20.6147 20.1224 20.6147H18.7039Z" fill="white"/>
<path d="M27.4375 28.6875H7.25V29.75H27.4375C28.0219 29.75 28.5 29.2719 28.5 28.6875V27.625C28.5 28.2094 28.0219 28.6875 27.4375 28.6875Z" fill="#CAD1D8"/>
</svg>
